# xmcd CD database file
#
# Track frame offsets:
#	150
#	14565
#	24390
#	42087
#	62202
#	76017
#	81742
#	94752
#	101577
#	117247
#	128287
#	136797
#	151182
#	162760
#	182307
#
# Disc length: 2613 seconds
#
# Revision: 6
# Processed by: cddbd v1.5.2PL0 Copyright (c) Steve Scherf et al.
# Submitted via: CDex 1.70beta3
#
DISCID=aa0a330f
DTITLE=吉田拓郎 - 元気です。
DYEAR=1972
DGENRE=Folk
TTITLE0=春だったね
TTITLE1=せんこう花火
TTITLE2=加川良の手紙
TTITLE3=親切
TTITLE4=夏休み
TTITLE5=馬
TTITLE6=たどり着いたらいつも雨降り
TTITLE7=高円寺
TTITLE8=こっちを向いてくれ
TTITLE9=まにあうかもしれない
TTITLE10=リンゴ
TTITLE11=また会おう
TTITLE12=旅の宿
TTITLE13=祭りのあと
TTITLE14=ガラスの言葉
EXTD=YEAR: 1972
EXTT0=
EXTT1=
EXTT2=
EXTT3=
EXTT4=
EXTT5=
EXTT6=
EXTT7=
EXTT8=
EXTT9=
EXTT10=
EXTT11=
EXTT12=
EXTT13=
EXTT14=
PLAYORDER=
